<svg xmlns="http://www.w3.org/2000/svg" viewBox="0 0 320 320" role="img" aria-label="Upload QR code">
  <rect width="320" height="320" fill="#ffffff" />
  <rect x="10" y="10" width="300" height="300" fill="#ffffff" stroke="#2f2420" stroke-width="4" />
  <rect x="30" y="30" width="80" height="80" fill="#2f2420" />
  <rect x="40" y="40" width="60" height="60" fill="#ffffff" />
  <rect x="50" y="50" width="40" height="40" fill="#2f2420" />

  <rect x="210" y="30" width="80" height="80" fill="#2f2420" />
  <rect x="220" y="40" width="60" height="60" fill="#ffffff" />
  <rect x="230" y="50" width="40" height="40" fill="#2f2420" />

  <rect x="30" y="210" width="80" height="80" fill="#2f2420" />
  <rect x="40" y="220" width="60" height="60" fill="#ffffff" />
  <rect x="50" y="230" width="40" height="40" fill="#2f2420" />

  <g fill="#2f2420">
    <rect x="140" y="40" width="20" height="20" />
    <rect x="170" y="40" width="20" height="20" />
    <rect x="140" y="70" width="20" height="20" />
    <rect x="170" y="70" width="20" height="20" />
    <rect x="140" y="100" width="20" height="20" />
    <rect x="190" y="100" width="20" height="20" />
    <rect x="120" y="120" width="20" height="20" />
    <rect x="150" y="120" width="20" height="20" />
    <rect x="180" y="120" width="20" height="20" />
    <rect x="120" y="150" width="20" height="20" />
    <rect x="160" y="150" width="20" height="20" />
    <rect x="200" y="150" width="20" height="20" />
    <rect x="110" y="180" width="20" height="20" />
    <rect x="140" y="180" width="20" height="20" />
    <rect x="170" y="180" width="20" height="20" />
    <rect x="200" y="180" width="20" height="20" />
    <rect x="130" y="210" width="20" height="20" />
    <rect x="160" y="210" width="20" height="20" />
    <rect x="190" y="210" width="20" height="20" />
    <rect x="120" y="240" width="20" height="20" />
    <rect x="150" y="240" width="20" height="20" />
    <rect x="180" y="240" width="20" height="20" />
    <rect x="210" y="240" width="20" height="20" />
  </g>

  <text x="160" y="308" text-anchor="middle" font-family="Helvetica, Arial, sans-serif" font-size="12" fill="#6d5c53">
    Scan to upload
  </text>
</svg>
